<svg width="52" height="52" viewBox="0 0 52 52" fill="none" xmlns="http://www.w3.org/2000/svg">
<g clip-path="url(#clip0_407_6675)">
<rect x="15" y="31" width="9" height="13" fill="#A0D9E3"/>
<path d="M45.1 48.7126H5.89998C5.73753 48.7126 5.58174 48.6481 5.46687 48.5332C5.35201 48.4183 5.28748 48.2626 5.28748 48.1001V44.1862C5.28748 44.0238 5.35201 43.868 5.46687 43.7531C5.58174 43.6383 5.73753 43.5737 5.89998 43.5737H45.1C45.2624 43.5737 45.4182 43.6383 45.5331 43.7531C45.6479 43.868 45.7125 44.0238 45.7125 44.1862V48.1001C45.7125 48.2626 45.6479 48.4183 45.5331 48.5332C45.4182 48.6481 45.2624 48.7126 45.1 48.7126ZM6.51248 47.4876H44.4875V44.7987H6.51248V47.4876Z" fill="#595959"/>
<path d="M30.631 44.7987C30.4685 44.7987 30.3127 44.7342 30.1979 44.6193C30.083 44.5045 30.0185 44.3487 30.0185 44.1862V9.5126H8.96255V44.1862C8.96255 44.3487 8.89802 44.5045 8.78315 44.6193C8.66829 44.7342 8.51249 44.7987 8.35005 44.7987C8.1876 44.7987 8.03181 44.7342 7.91695 44.6193C7.80208 44.5045 7.73755 44.3487 7.73755 44.1862V8.9001C7.73755 8.73765 7.80208 8.58186 7.91695 8.46699C8.03181 8.35213 8.1876 8.2876 8.35005 8.2876H30.6328C30.7952 8.2876 30.951 8.35213 31.0659 8.46699C31.1808 8.58186 31.2453 8.73765 31.2453 8.9001V44.1862C31.2453 44.2668 31.2294 44.3466 31.1985 44.421C31.1676 44.4955 31.1223 44.5631 31.0653 44.62C31.0082 44.6769 30.9404 44.722 30.8659 44.7526C30.7914 44.7833 30.7115 44.799 30.631 44.7987Z" fill="#595959"/>
<path d="M42.6499 44.7987C42.4875 44.7987 42.3317 44.7342 42.2168 44.6193C42.102 44.5045 42.0374 44.3487 42.0374 44.1862V21.5617L30.4104 17.0635C30.3337 17.0358 30.2633 16.993 30.2033 16.9377C30.1433 16.8824 30.095 16.8157 30.0612 16.7414C30.0274 16.6672 30.0088 16.587 30.0064 16.5054C30.004 16.4239 30.0179 16.3427 30.0473 16.2666C30.0767 16.1906 30.121 16.1211 30.1776 16.0624C30.2343 16.0037 30.302 15.9568 30.377 15.9247C30.4519 15.8925 30.5326 15.8756 30.6141 15.875C30.6957 15.8744 30.7766 15.8901 30.852 15.9212L42.8723 20.5707C42.9875 20.6153 43.0865 20.6937 43.1563 20.7955C43.2262 20.8974 43.2636 21.018 43.2637 21.1415V44.1862C43.2637 44.2668 43.2478 44.3465 43.2169 44.4209C43.1861 44.4953 43.1408 44.5629 43.0838 44.6198C43.0268 44.6767 42.9592 44.7218 42.8847 44.7525C42.8103 44.7832 42.7305 44.7989 42.6499 44.7987Z" fill="#595959"/>
<path d="M17.2827 17.8683H12.1267C11.9642 17.8683 11.8084 17.8037 11.6936 17.6889C11.5787 17.574 11.5142 17.4182 11.5142 17.2558V12.1555C11.5142 11.993 11.5787 11.8372 11.6936 11.7224C11.8084 11.6075 11.9642 11.543 12.1267 11.543H17.2827C17.4451 11.543 17.6009 11.6075 17.7158 11.7224C17.8307 11.8372 17.8952 11.993 17.8952 12.1555V17.2558C17.8952 17.4182 17.8307 17.574 17.7158 17.6889C17.6009 17.8037 17.4451 17.8683 17.2827 17.8683ZM12.7392 16.6433H16.6702V12.768H12.7392V16.6433Z" fill="#595959"/>
<path d="M26.853 17.8683H21.697C21.5345 17.8683 21.3787 17.8037 21.2639 17.6889C21.149 17.574 21.0845 17.4182 21.0845 17.2558V12.1555C21.0845 11.993 21.149 11.8372 21.2639 11.7224C21.3787 11.6075 21.5345 11.543 21.697 11.543H26.853C27.0154 11.543 27.1712 11.6075 27.2861 11.7224C27.401 11.8372 27.4655 11.993 27.4655 12.1555V17.2558C27.4655 17.4182 27.401 17.574 27.2861 17.6889C27.1712 17.8037 27.0154 17.8683 26.853 17.8683ZM22.3095 16.6433H26.2405V12.768H22.3095V16.6433Z" fill="#595959"/>
<path d="M17.2827 26.7789H12.1267C11.9642 26.7789 11.8084 26.7144 11.6936 26.5995C11.5787 26.4846 11.5142 26.3288 11.5142 26.1664V21.0661C11.5142 20.9037 11.5787 20.7479 11.6936 20.633C11.8084 20.5181 11.9642 20.4536 12.1267 20.4536H17.2827C17.4451 20.4536 17.6009 20.5181 17.7158 20.633C17.8307 20.7479 17.8952 20.9037 17.8952 21.0661V26.1664C17.8952 26.3288 17.8307 26.4846 17.7158 26.5995C17.6009 26.7144 17.4451 26.7789 17.2827 26.7789ZM12.7392 25.5539H16.6702V21.6786H12.7392V25.5539Z" fill="#595959"/>
<path d="M26.853 26.7789H21.697C21.5345 26.7789 21.3787 26.7144 21.2639 26.5995C21.149 26.4846 21.0845 26.3288 21.0845 26.1664V21.0661C21.0845 20.9037 21.149 20.7479 21.2639 20.633C21.3787 20.5181 21.5345 20.4536 21.697 20.4536H26.853C27.0154 20.4536 27.1712 20.5181 27.2861 20.633C27.401 20.7479 27.4655 20.9037 27.4655 21.0661V26.1664C27.4655 26.3288 27.401 26.4846 27.2861 26.5995C27.1712 26.7144 27.0154 26.7789 26.853 26.7789ZM22.3095 25.5539H26.2405V21.6786H22.3095V25.5539Z" fill="#595959"/>
<path d="M24.4918 44.7985C24.3294 44.7985 24.1736 44.734 24.0587 44.6191C23.9439 44.5042 23.8793 44.3485 23.8793 44.186V31.2194H15.101V44.186C15.101 44.3485 15.0364 44.5042 14.9216 44.6191C14.8067 44.734 14.6509 44.7985 14.4885 44.7985C14.326 44.7985 14.1702 44.734 14.0554 44.6191C13.9405 44.5042 13.876 44.3485 13.876 44.186V30.6069C13.876 30.4444 13.9405 30.2886 14.0554 30.1738C14.1702 30.0589 14.326 29.9944 14.4885 29.9944H24.4918C24.6543 29.9944 24.8101 30.0589 24.9249 30.1738C25.0398 30.2886 25.1043 30.4444 25.1043 30.6069V44.186C25.1043 44.3485 25.0398 44.5042 24.9249 44.6191C24.8101 44.734 24.6543 44.7985 24.4918 44.7985Z" fill="#595959"/>
<path d="M38.6956 24.5844H34.587C34.4245 24.5844 34.2688 24.5198 34.1539 24.405C34.039 24.2901 33.9745 24.1343 33.9745 23.9719C33.9745 23.8094 34.039 23.6536 34.1539 23.5388C34.2688 23.4239 34.4245 23.3594 34.587 23.3594H38.6956C38.8581 23.3594 39.0139 23.4239 39.1287 23.5388C39.2436 23.6536 39.3081 23.8094 39.3081 23.9719C39.3081 24.1343 39.2436 24.2901 39.1287 24.405C39.0139 24.5198 38.8581 24.5844 38.6956 24.5844Z" fill="#595959"/>
<path d="M38.6956 29.9352H34.587C34.4245 29.9352 34.2688 29.8707 34.1539 29.7558C34.039 29.6409 33.9745 29.4852 33.9745 29.3227C33.9745 29.1603 34.039 29.0045 34.1539 28.8896C34.2688 28.7747 34.4245 28.7102 34.587 28.7102H38.6956C38.8581 28.7102 39.0139 28.7747 39.1287 28.8896C39.2436 29.0045 39.3081 29.1603 39.3081 29.3227C39.3081 29.4852 39.2436 29.6409 39.1287 29.7558C39.0139 29.8707 38.8581 29.9352 38.6956 29.9352Z" fill="#595959"/>
<path d="M38.6956 35.2858H34.587C34.4245 35.2858 34.2688 35.2213 34.1539 35.1064C34.039 34.9915 33.9745 34.8357 33.9745 34.6733C33.9745 34.5108 34.039 34.3551 34.1539 34.2402C34.2688 34.1253 34.4245 34.0608 34.587 34.0608H38.6956C38.8581 34.0608 39.0139 34.1253 39.1287 34.2402C39.2436 34.3551 39.3081 34.5108 39.3081 34.6733C39.3081 34.8357 39.2436 34.9915 39.1287 35.1064C39.0139 35.2213 38.8581 35.2858 38.6956 35.2858Z" fill="#595959"/>
<path d="M38.6956 40.6366H34.587C34.4245 40.6366 34.2688 40.5721 34.1539 40.4572C34.039 40.3424 33.9745 40.1866 33.9745 40.0241C33.9745 39.8617 34.039 39.7059 34.1539 39.591C34.2688 39.4762 34.4245 39.4116 34.587 39.4116H38.6956C38.8581 39.4116 39.0139 39.4762 39.1287 39.591C39.2436 39.7059 39.3081 39.8617 39.3081 40.0241C39.3081 40.1866 39.2436 40.3424 39.1287 40.4572C39.0139 40.5721 38.8581 40.6366 38.6956 40.6366Z" fill="#595959"/>
</g>
<defs>
<clipPath id="clip0_407_6675">
<rect width="52" height="52" fill="white"/>
</clipPath>
</defs>
</svg>
