<svg width="52" height="52" viewBox="0 0 52 52" fill="none" xmlns="http://www.w3.org/2000/svg">
<g clip-path="url(#clip0_407_6878)">
<path d="M15.8843 30.2991C14.1646 30.2991 13.6272 29.9766 12.9823 29.5467C12.8748 29.493 12.7673 29.3855 12.6061 29.3317C11.8538 29.1168 9.81165 28.5256 9.05929 24.2265C8.30693 23.9578 7.28587 23.1517 7.28587 21.217C7.28587 19.7123 7.98449 19.2287 8.03823 19.1749C8.30693 19.0137 8.62937 19.0674 8.79059 19.3361C8.95181 19.6048 8.89807 19.9273 8.62937 20.0885C8.36067 20.2497 8.30693 20.3572 8.30693 21.2708C8.30693 23.0979 9.43547 23.3129 9.54295 23.3129C9.75791 23.3666 9.97287 23.5278 10.0266 23.7428C10.6177 27.7196 12.1402 27.8768 12.8388 28.0918H12.9463C13 28.0918 13.0537 28.1455 13.0537 28.1455C13.215 28.253 13.3762 28.3605 13.5374 28.468C14.0211 28.7904 14.3258 29.1369 15.8305 29.1369C17.3352 29.1369 17.6577 28.8441 18.1413 28.468C18.2681 28.3834 18.3949 28.2989 18.5217 28.2144C18.589 28.1695 18.6515 28.0918 18.7325 28.0918C18.8037 28.0918 18.8737 28.0803 18.942 28.0601C19.6457 27.8522 21.1798 27.5245 21.7419 23.7428C21.7956 23.4741 21.9569 23.3129 22.2256 23.3129C22.333 23.3129 23.4616 23.0979 23.4616 21.2708C23.4616 20.3572 23.1391 20.0885 23.1391 20.0885C22.8704 19.9273 22.8167 19.6048 23.0317 19.3361C23.1929 19.0674 23.5691 19.0137 23.784 19.2287C23.8378 19.2824 24.5364 19.8198 24.5364 21.2708C24.5364 23.2054 23.5153 24.0115 22.763 24.2802C22.0106 28.5794 19.9685 29.1705 19.2161 29.3855C19.0549 29.493 18.9474 29.5467 18.8399 29.6004C18.1413 29.9766 17.6039 30.2991 15.8843 30.2991Z" fill="#595959"/>
<path d="M23.4078 20.0885C23.3003 20.0885 23.1929 20.0885 23.1391 20.0348C21.4194 18.96 21.0433 17.3478 20.9895 15.9505C20.9358 14.7683 20.9837 13.6397 20.0164 12.7261C19.2103 11.92 18.0338 10.9977 15.8842 10.9977C13.7346 10.9977 12.699 11.92 11.8929 12.7261C10.9256 13.6935 10.7252 14.822 10.7252 16.0043C10.6715 17.4015 10.4028 18.96 8.6831 20.0348C8.4144 20.196 8.09196 20.0885 7.93074 19.8735C7.76952 19.6048 7.877 19.2824 8.09196 19.1212C9.32798 18.3688 9.32798 17.294 9.38172 16.0043C9.43546 14.7145 9.4892 13.2635 10.7252 12.0275C11.6925 11.0065 13.3585 9.87793 15.8842 9.87793C18.41 9.87793 20.076 11.0065 20.9895 11.9738C22.2255 13.2098 22.2793 14.6608 22.333 15.9505C22.3868 17.294 22.4405 18.3151 23.6228 19.0674C23.8915 19.2287 23.9452 19.5511 23.784 19.8198C23.784 19.981 23.569 20.0885 23.4078 20.0885Z" fill="#595959"/>
<path d="M23.569 20.2497C23.5153 20.2497 23.4616 20.2497 23.3541 20.196C23.0854 20.0885 22.9241 19.766 23.0316 19.4973C23.0316 18.5286 23.1974 17.4015 23.1974 16.4342C23.1974 11.8125 20.8283 11.4364 18.41 11.4364C18.0876 11.4364 17.8726 11.2214 17.8726 10.899C17.8726 10.5765 18.0876 10.3616 18.41 10.3616C21.2582 10.3616 24.4826 11.0602 24.4826 16.4342C24.4826 17.4552 24.4826 18.7987 24.0527 19.9273C23.9989 20.0885 23.784 20.2497 23.569 20.2497Z" fill="#595959"/>
<path d="M8.19945 20.2497C7.98449 20.2497 7.76953 20.1422 7.71579 19.9273C7.28587 18.7987 7.28587 17.4552 7.28587 16.4342C7.28587 11.0602 10.5103 10.3616 13.3585 10.3616C13.6809 10.3616 13.8959 10.5765 13.8959 10.899C13.8959 11.2214 13.6809 11.4364 13.3585 11.4364C10.9402 11.4364 8.41441 11.8125 8.41441 16.4342C8.41441 17.4552 8.46656 17.9636 8.789 19.2746C8.89648 19.5433 8.68311 20.1422 8.41441 20.2497C8.36067 20.2497 8.25319 20.2497 8.19945 20.2497Z" fill="#595959"/>
<path d="M32.0062 41.1103C31.6838 41.1103 31.0579 40.9902 31.0579 40.6678C31.0579 37.6331 30.7512 35.1136 26.5058 34.0925C23.8725 33.4477 19.4248 31.0578 19.4248 29.5405V29.0347C19.4248 28.7122 19.861 28.7407 20.1834 28.7407C20.5059 28.7407 20.4864 28.1495 20.7208 29.2781V28.964C20.7208 30.2001 23.1929 31.6964 26.9547 32.6099C32.5436 33.9534 32.5436 38.692 32.5436 40.5729C32.5436 40.8954 32.3287 41.1103 32.0062 41.1103Z" fill="#595959"/>
<path d="M-0.300925 41.6793C-0.626704 41.6793 -0.775101 41.907 -0.775101 41.5846C-0.775101 39.7037 -0.775101 33.9535 4.87172 32.61C8.72677 31.6964 11.1701 30.2992 11.1701 29.0094V29.2781C11.1701 28.9557 11.3873 28.7407 11.7131 28.7407C12.0388 28.7407 12.256 28.9557 12.256 29.2781V29.0094C12.256 31.5352 7.82832 33.632 5.16779 34.2768C0.87838 35.2979 1.02928 38.6173 1.02928 41.5192C1.02928 41.8417 0.024853 41.6793 -0.300925 41.6793Z" fill="#595959"/>
<path d="M-0.300919 41.1736H52.3009" stroke="#595959" stroke-width="1.4"/>
<path d="M10.3069 31.1125L8.44783 32.0421C8.60276 33.4364 10.214 36.411 15.4195 37.1547C20.625 37.8983 22.8559 34.0561 23.3207 32.0421L21.4616 31.1125C20.8419 32.8167 18.7659 36.0392 15.4195 35.2955C12.0731 34.5519 10.6168 32.197 10.3069 31.1125Z" fill="#A0D9E3"/>
<path d="M15.8305 35.673C12.9823 35.673 10.5103 33.7921 9.7579 31.1051C9.70416 30.8364 9.80254 30.7826 10.0712 30.7289C10.3399 30.6752 10.8384 30.4602 10.8921 30.7289C11.4833 32.986 13.5197 34.5982 15.8305 34.5982H15.8843C18.2488 34.5982 20.054 32.986 20.6451 30.7289C20.6989 30.4602 21.1507 30.2452 21.4194 30.3527C21.6881 30.4065 21.9031 30.7289 21.7956 30.9976C21.1508 33.7383 18.7325 35.673 15.8842 35.673H15.8305Z" fill="#595959"/>
<path d="M15.8843 38.1387C11.9075 38.1387 8.70526 36.0682 7.79168 32.5751C7.73794 32.3064 7.85752 31.965 8.12621 31.9113C8.39491 31.8575 8.79059 31.5889 8.84433 31.8576C9.59669 34.867 12.2837 36.7479 15.8305 36.7479C19.3773 36.7479 22.0643 34.867 22.8167 31.8576C22.8704 31.5889 23.1929 31.3739 23.4616 31.4814C23.7303 31.5351 24.0843 31.8006 23.9769 32.0693C23.1708 35.5624 19.861 38.1387 15.8843 38.1387Z" fill="#595959"/>
<path d="M18.8937 23.313C18.0339 23.313 17.389 23.0443 16.9053 22.5069C16.4217 21.9158 16.3142 21.1634 16.3142 20.7335C16.0992 20.6798 15.938 20.626 15.8843 20.626C15.8305 20.626 15.6693 20.6798 15.4544 20.7335C15.4544 21.2172 15.3469 21.9695 14.8632 22.5069C14.4333 23.0443 13.7347 23.313 12.8748 23.313C11.8538 23.313 11.1014 23.0443 10.6178 22.5069C10.0804 21.9158 9.8654 21.1634 9.97288 20.0886C9.97288 20.0349 9.97288 19.9811 10.0266 19.9274C10.1341 19.7662 10.6178 18.8526 12.7136 18.8526C13.9496 18.8526 14.6635 19.2825 15.0397 19.7124C15.3084 19.5512 15.6693 19.5512 15.8843 19.5512C16.0992 19.5512 16.4158 19.6587 16.6845 19.7124C17.0607 19.3363 17.8189 18.7451 19.0549 18.7451C21.1508 18.7451 21.6344 19.6587 21.7419 19.8199C21.7419 19.8737 21.7957 19.9274 21.7957 19.9811C21.9031 21.0559 21.6882 21.862 21.1508 22.3994C20.6671 23.0443 19.9148 23.313 18.8937 23.313ZM17.389 20.5723C17.389 20.841 17.389 21.4321 17.7114 21.862C17.9801 22.1307 18.3563 22.2919 18.84 22.2919C19.5386 22.2919 20.0222 22.1307 20.3447 21.8083C20.6134 21.4859 20.7746 21.0022 20.7209 20.3036C20.6134 20.1961 20.1835 19.8737 19.0549 19.8737C18.0876 19.8737 17.5502 20.3573 17.389 20.5723ZM11.0477 20.3036C10.9939 21.0022 11.1014 21.4859 11.4239 21.7545C11.6926 22.077 12.23 22.2382 12.9286 22.2382C13.466 22.2382 13.8422 22.077 14.0571 21.8083C14.4333 21.4321 14.4333 20.7872 14.3796 20.5185C14.2183 20.3036 13.6809 19.9274 12.7136 19.9274C11.5851 19.9811 11.1552 20.1424 11.0477 20.3036Z" fill="#595959"/>
<path d="M21.463 20.9418C21.2586 20.9418 21.003 20.7408 20.9519 20.4058C20.9008 20.0707 21.0541 19.6687 21.3097 19.6016L23.3538 18.9315C23.6093 18.8645 23.916 19.0656 23.9671 19.4006C24.0182 19.7357 23.8649 20.1377 23.6093 20.2047L21.5652 20.8748C21.5652 20.9418 21.5141 20.9418 21.463 20.9418Z" fill="#595959"/>
<path d="M10.2944 20.9421C10.2439 20.9421 10.1934 20.9421 10.1934 20.9421L8.17198 20.2569C7.91931 20.1884 7.71717 19.7772 7.81824 19.4346C7.86877 19.092 8.17198 18.8179 8.42465 18.955L10.4461 19.6402C10.6987 19.7087 10.9009 20.1198 10.7998 20.4624C10.7493 20.7365 10.4966 20.9421 10.2944 20.9421Z" fill="#595959"/>
<path d="M51.701 41.1735C51.3738 41.1735 50.6103 41.0102 50.6103 40.7214C50.6103 39.6624 51.2243 37.5354 47.2431 35.6098C46.5341 35.2729 44.6297 34.4294 43.7026 34.0925C41.3029 33.2741 39.6563 32.0693 39.1575 30.9187C39.1029 30.678 39.329 30.6001 39.6563 30.5519C39.9835 30.5038 40.162 30.0462 40.3027 30.4868C40.4118 31.6903 42.5933 32.4123 44.6657 33.0863C45.6474 33.4232 46.5745 33.7121 47.338 34.0972C51.8101 36.2634 52.3009 39.3924 52.3009 40.644C52.2464 40.9809 52.0282 41.1735 51.701 41.1735Z" fill="#595959"/>
<path d="M33.3861 30.1362C33.2045 31.4402 30.324 32.1965 28.0232 32.9267L29.0266 33.9438C31.6302 33.0571 34.3549 32.1704 34.5971 30.2405C34.6576 29.9275 34.3549 29.7189 34.0522 29.6667C33.6889 29.6667 33.4467 29.8754 33.3861 30.1362Z" fill="#595959"/>
<path d="M34.4297 13.4395C29.3943 15.2941 29.3344 19.7759 29.9338 21.785C32.8111 20.6723 34.13 19.4668 34.4297 19.0032C40.1844 21.5995 43.4215 21.9395 44.3207 21.785C44.4706 21.0123 44.6804 19.1886 44.3207 18.0759C43.8712 16.685 40.7239 11.1213 34.4297 13.4395Z" fill="#A0D9E3"/>
<path d="M37.1273 31.7533C35.61 31.7533 35.1042 31.4404 34.5478 31.0231C34.4467 30.9709 34.3455 30.8666 34.2443 30.8145C33.5868 30.6058 31.766 30.0321 31.1085 25.8593C30.4004 25.5464 29.5405 24.8683 29.5405 23.4078C29.5405 22.7819 29.6417 21.9853 29.844 21.5681C29.9957 21.3073 30.2486 21.0465 30.5521 20.9422C31.1085 20.7335 32.8787 19.8371 33.4857 18.1159C33.5362 17.9594 33.688 17.8551 33.8397 17.8029C33.9914 17.7508 34.1432 17.8029 34.2949 17.9073C34.3455 17.9594 38.4424 20.9551 43.5508 21.0594C44.0566 21.0594 44.5118 21.3723 44.6636 21.8418C44.7647 22.2069 44.7141 22.8863 44.7141 23.4078C44.7141 24.8683 43.8543 25.5464 43.1462 25.8072C42.4887 29.9799 40.7184 30.5537 40.0103 30.7623C39.9092 30.8145 39.808 30.9188 39.7068 30.9709C39.1505 31.4404 38.6447 31.7533 37.1273 31.7533ZM34.2949 19.4959C33.3845 21.2172 31.7587 21.687 31.1517 21.8957C31.1012 21.8957 31.0506 21.9478 31 22C30.9494 22.2086 30.6965 22.6259 30.6965 23.1475C30.6965 24.4515 31.5637 24.8683 31.6142 24.8683C31.8166 24.9205 32.0189 25.0769 32.0695 25.2856C32.6258 29.1454 33.8397 29.2392 34.3961 29.4478H34.4467C34.4972 29.4478 34.5478 29.5 34.5478 29.5L35.003 29.813C35.4076 30.1259 35.7589 30.5859 37.0234 30.5859C38.2879 30.5859 38.6953 30.1781 39.0999 29.8651C39.2516 29.7608 39.3528 29.6565 39.5551 29.5522C39.6057 29.5522 39.6057 29.5 39.6563 29.5H39.7068C40.3138 29.2914 41.4942 28.8598 42 25C42.0506 24.7914 42.2023 24.5827 42.4552 24.5827C42.5564 24.5827 43.7026 24.6597 43.7026 23.4078C43.7026 23.0427 43.652 22.7298 43.5508 22.5211C43.5002 22.4168 43.3991 22.3647 43.3485 22.3647C38.9482 22.2603 35.5594 20.3304 34.2949 19.4959Z" fill="#595959"/>
<path d="M37.1275 9.73046C33.1711 10.1014 32.4817 12.6668 32.6316 13.9032H41.6232C41.7731 12.3577 41.0839 9.35955 37.1275 9.73046Z" fill="#A0D9E3"/>
<path d="M44.006 22.834C43.8543 22.834 43.652 22.7297 43.5508 22.5732C43.3991 22.3125 43.5002 22.0517 43.7026 21.8952C43.8037 21.843 43.7026 21.3214 43.7026 19.2351C43.7026 16.9922 41.0219 13.8611 37.1273 13.8611C33.2328 13.8611 30.4373 16.9922 30.4373 19.2351C30.4373 21.3214 30.8419 21.6533 30.8925 21.7055C31.0948 21.862 30.805 22.3646 30.6532 22.5732C30.5015 22.834 30.198 22.9384 29.9451 22.7819C29.7428 22.6254 29.0347 21.9995 29.0347 19.2351C29.0347 16.262 32.8281 12.4543 37.1273 12.4543C41.4265 12.4543 45.2199 16.262 45.2199 19.2351C45.2199 21.9995 44.5118 22.6254 44.2589 22.7819C44.2083 22.834 44.1072 22.834 44.006 22.834Z" fill="#595959"/>
<path d="M41.5782 14.9579C41.2748 14.9058 41.0725 14.6971 41.0725 14.3842C41.1736 13.2888 40.769 12.5159 40.1621 11.8378C39.3022 10.899 38.0883 10.8263 37.1273 10.8263C36.1663 10.8263 34.9524 10.899 34.0926 11.8378C33.4857 12.5159 33.081 13.2888 33.1822 14.3842C33.2328 14.645 33.0304 14.9058 32.727 14.9579C32.4235 15.0101 32.2212 14.8014 32.1706 14.4885C32.0189 13.0802 32.3729 11.8805 33.1822 10.9938C34.0926 9.95062 35.5594 9.32471 37.1273 9.32471C38.6953 9.32471 40.162 9.95062 41.0725 10.9938C41.8817 11.8805 42.2358 13.1323 42.084 14.4885C42.0335 14.7493 41.8311 14.9579 41.5782 14.9579Z" fill="#595959"/>
<path d="M36.6215 37.1273C33.5505 37.2146 31.4571 35.1878 31.021 32.6006C30.9846 32.4103 31.13 32.182 31.3118 32.144C31.4935 32.1059 31.706 31.8792 31.7423 32.0695C32.1058 34.2382 34.562 36.1158 36.5852 36.1158H36.6215C38.7297 36.1158 41.2734 34.707 41.6369 32.5002C41.6732 32.3099 42.1821 32.3952 42.4002 32.4333C42.5819 32.4713 42.7273 32.6615 42.691 32.8898C42.1908 35.999 38.6083 37.2146 36.6215 37.1273Z" fill="#595959"/>
</g>
<defs>
<clipPath id="clip0_407_6878">
<rect width="52" height="52" fill="white"/>
</clipPath>
</defs>
</svg>
