<svg width="52" height="52" viewBox="0 0 52 52" fill="none" xmlns="http://www.w3.org/2000/svg">
<g clip-path="url(#clip0_407_6828)">
<path d="M45.0644 16.6224C45.0783 16.5014 45.0852 16.3798 45.085 16.258C45.0817 15.6278 44.8631 15.0177 44.4654 14.5288C44.0678 14.0399 43.515 13.7016 42.8987 13.5699C42.2016 13.4372 41.4802 13.5742 40.8803 13.9533C40.2804 14.3324 39.8469 14.9252 39.6675 15.6118L36.6425 24.3155C36.5977 24.3333 36.554 24.354 36.5119 24.3774L30.4344 27.9386C29.5044 28.4849 28.733 29.2644 28.1965 30.2C27.6599 31.1356 27.3768 32.1951 27.375 33.2736V39.7499C27.1927 39.7499 27.0178 39.8223 26.8889 39.9512C26.7599 40.0802 26.6875 40.255 26.6875 40.4374V45.9374C26.6875 46.1197 26.7599 46.2946 26.8889 46.4235C27.0178 46.5524 27.1927 46.6249 27.375 46.6249H37C37.1823 46.6249 37.3572 46.5524 37.4861 46.4235C37.6151 46.2946 37.6875 46.1197 37.6875 45.9374V40.4374C37.6875 40.255 37.6151 40.0802 37.4861 39.9512C37.3572 39.8223 37.1823 39.7499 37 39.7499V38.2374C37.0013 37.947 37.0631 37.6601 37.1815 37.3949C37.2998 37.1298 37.4722 36.8922 37.6875 36.6974L42.335 32.5655C42.8434 32.1207 43.2072 31.5342 43.38 30.8811L46.3637 19.723C46.4274 19.49 46.4598 19.2496 46.46 19.008C46.4573 18.5228 46.3269 18.0469 46.0819 17.6282C45.8369 17.2094 45.486 16.8625 45.0644 16.6224ZM40.9806 16.0174C41.065 15.6618 41.2803 15.3512 41.5836 15.1473C41.8868 14.9434 42.2558 14.8613 42.6169 14.9174C42.925 14.9819 43.2017 15.1503 43.4007 15.3943C43.5996 15.6383 43.7088 15.9432 43.71 16.258V16.2718C43.0959 16.2832 42.5023 16.4948 42.0196 16.8746C41.5368 17.2543 41.1913 17.7814 41.0356 18.3755L39.1175 24.2949C38.8271 24.1571 38.5157 24.0688 38.1962 24.0336L40.9806 16.0174ZM36.3125 45.2499H28.0625V41.1249H36.3125V45.2499ZM45.0369 19.3655L42.0462 30.5305C41.9428 30.9185 41.7276 31.2675 41.4275 31.5343L36.7731 35.6661C36.413 35.9909 36.1248 36.3875 35.927 36.8303C35.7293 37.2731 35.6264 37.7524 35.625 38.2374V39.7499H28.75V33.2736C28.7534 32.4348 28.9744 31.6113 29.3913 30.8834C29.8083 30.1556 30.4069 29.5484 31.1287 29.1211L37.1994 25.5668C37.3559 25.4756 37.5289 25.4162 37.7084 25.3921C37.888 25.3679 38.0705 25.3795 38.2456 25.4262C38.4206 25.4728 38.5847 25.5536 38.7284 25.6638C38.8722 25.7741 38.9927 25.9116 39.0831 26.0686C39.2617 26.3863 39.3109 26.7606 39.2206 27.1136C39.1729 27.288 39.0912 27.4512 38.9803 27.5939C38.8694 27.7367 38.7315 27.8561 38.5744 27.9455L34.635 30.2211C34.4853 30.3163 34.3782 30.4655 34.3361 30.6378C34.2939 30.81 34.3199 30.9919 34.4086 31.1454C34.4973 31.2989 34.642 31.4122 34.8123 31.4616C34.9826 31.511 35.1654 31.4927 35.3225 31.4105L39.2619 29.1349C39.5767 28.9562 39.8527 28.7164 40.0735 28.4295C40.2943 28.1426 40.4554 27.8144 40.5475 27.4643C40.7346 26.7608 40.6358 26.0119 40.2725 25.3811L40.2312 25.3193L42.3556 18.7674C42.44 18.4118 42.6553 18.1012 42.9586 17.8973C43.2618 17.6934 43.6308 17.6113 43.9919 17.6674C44.3 17.7319 44.5767 17.9003 44.7757 18.1443C44.9746 18.3883 45.0838 18.6932 45.085 19.008C45.0873 19.1289 45.0711 19.2495 45.0369 19.3655Z" fill="#595959"/>
<path d="M24.625 39.75V33.2737C24.6232 32.1952 24.3401 31.1357 23.8035 30.2001C23.267 29.2644 22.4956 28.485 21.5656 27.9387L15.4881 24.3706C15.4469 24.35 15.3987 24.3362 15.3575 24.3156L12.3531 15.66C12.1785 14.9634 11.745 14.3595 11.1409 13.9712C10.5368 13.583 9.80742 13.4395 9.10124 13.57C8.48496 13.7016 7.93219 14.04 7.53456 14.5289C7.13693 15.0178 6.91833 15.6279 6.91499 16.2581C6.91481 16.3798 6.9217 16.5015 6.93562 16.6225C6.51402 16.8626 6.16308 17.2095 5.91808 17.6282C5.67309 18.047 5.54269 18.5229 5.53999 19.0081C5.54133 19.2491 5.57133 19.4891 5.62937 19.7231L8.61999 30.8743C8.79089 31.5301 9.15498 32.1194 9.66499 32.5656L14.3056 36.6975C14.5231 36.8909 14.6973 37.1281 14.817 37.3934C14.9366 37.6588 14.999 37.9464 15 38.2375V39.75C14.8177 39.75 14.6428 39.8224 14.5139 39.9513C14.3849 40.0803 14.3125 40.2551 14.3125 40.4375V45.9375C14.3125 46.1198 14.3849 46.2947 14.5139 46.4236C14.6428 46.5525 14.8177 46.625 15 46.625H24.625C24.8073 46.625 24.9822 46.5525 25.1111 46.4236C25.2401 46.2947 25.3125 46.1198 25.3125 45.9375V40.4375C25.3125 40.2551 25.2401 40.0803 25.1111 39.9513C24.9822 39.8224 24.8073 39.75 24.625 39.75ZM8.28999 16.2581C8.29084 15.9442 8.39906 15.6401 8.59666 15.3962C8.79426 15.1523 9.06936 14.9834 9.37624 14.9175C9.74726 14.8636 10.1249 14.952 10.4335 15.1649C10.742 15.3779 10.9587 15.6996 11.04 16.0656L13.8037 24.0337C13.4843 24.0689 13.1729 24.1572 12.8825 24.295L10.9781 18.41C10.8231 17.8099 10.477 17.2767 9.99195 16.8909C9.50695 16.5052 8.9095 16.2878 8.28999 16.2718V16.2581ZM15.22 35.6662L10.5725 31.5343C10.2707 31.2662 10.0554 30.9144 9.95374 30.5237L6.95624 19.3656C6.92778 19.2486 6.91393 19.1285 6.91499 19.0081C6.91584 18.6942 7.02406 18.3901 7.22166 18.1462C7.41926 17.9023 7.69436 17.7334 8.00124 17.6675C8.36965 17.6122 8.74533 17.6984 9.05272 17.9089C9.36011 18.1193 9.57641 18.4384 9.65812 18.8018L11.7687 25.3193L11.7275 25.3812C11.3642 26.012 11.2653 26.7609 11.4525 27.4643C11.5445 27.8145 11.7057 28.1426 11.9265 28.4296C12.1473 28.7165 12.4232 28.9563 12.7381 29.135L16.6775 31.4106C16.8346 31.4928 17.0174 31.5111 17.1877 31.4617C17.358 31.4123 17.5026 31.299 17.5914 31.1455C17.6801 30.9919 17.7061 30.8101 17.6639 30.6378C17.6217 30.4656 17.5146 30.3163 17.365 30.2212L13.4256 27.9456C13.2685 27.8562 13.1306 27.7367 13.0197 27.594C12.9088 27.4512 12.8271 27.288 12.7794 27.1137C12.689 26.7607 12.7383 26.3864 12.9169 26.0687C13.0067 25.9121 13.1265 25.7746 13.2694 25.6643C13.4124 25.554 13.5756 25.4728 13.7499 25.4256C13.9242 25.3784 14.1061 25.3659 14.2852 25.389C14.4643 25.412 14.6371 25.4701 14.7937 25.56L20.8712 29.1212C21.5931 29.5485 22.1917 30.1557 22.6087 30.8835C23.0256 31.6114 23.2466 32.4349 23.25 33.2737V39.75H16.375V38.2375C16.3738 37.7518 16.2704 37.2718 16.0714 36.8288C15.8724 36.3858 15.5823 35.9897 15.22 35.6662ZM23.9375 45.25H15.6875V41.125H23.9375V45.25Z" fill="#595959"/>
<g clip-path="url(#clip1_407_6828)">
<path d="M35.1168 8.88455C34.4193 7.95013 33.4339 7.28188 32.319 6.98717C31.2041 6.69246 30.0244 6.78839 28.9694 7.25955C28.0252 7.67501 27.183 8.37546 26.5 9.30728C25.817 8.37546 24.9748 7.67501 24.0306 7.26183C22.9758 6.79042 21.7963 6.69413 20.6814 6.98843C19.5665 7.28272 18.581 7.95052 17.8832 8.88455C17.1475 9.86728 16.7588 11.0955 16.7588 12.4359C16.7588 14.365 17.8872 16.4814 20.1123 18.7286C21.9254 20.5591 24.068 22.0582 25.1835 22.7886C25.5765 23.0451 26.0334 23.1814 26.5 23.1814C26.9666 23.1814 27.4235 23.0451 27.8165 22.7886C28.9311 22.0582 31.0746 20.5591 32.8877 18.7286C35.1128 16.4823 36.2412 14.365 36.2412 12.4359C36.2412 11.0955 35.8525 9.86728 35.1168 8.88455V8.88455Z" fill="#595959"/>
<path d="M35.1267 12.4356C35.1267 14.0502 34.1097 15.8956 32.1035 17.9211C30.3648 19.6784 28.2931 21.1256 27.2142 21.8302C27.0012 21.9689 26.7537 22.0427 26.5009 22.0427C26.2481 22.0427 26.0006 21.9689 25.7876 21.8302C24.7087 21.1238 22.6387 19.6765 20.8982 17.9211C18.892 15.8956 17.8751 14.0502 17.8751 12.4356C17.8751 11.3447 18.1872 10.3565 18.7708 9.572C19.3091 8.85453 20.0631 8.3366 20.9174 8.09745C21.2578 8.00357 21.6089 7.95619 21.9615 7.95654C23.3204 7.95654 24.8879 8.64927 26.0212 10.6193C26.0703 10.7048 26.1405 10.7757 26.2248 10.825C26.3091 10.8743 26.4046 10.9003 26.5018 10.9003C26.599 10.9003 26.6945 10.8743 26.7788 10.825C26.8631 10.7757 26.9333 10.7048 26.9824 10.6193C28.4224 8.11654 30.5628 7.67564 32.0862 8.09745C32.9405 8.3366 33.6945 8.85453 34.2328 9.572C34.8168 10.3565 35.1267 11.3465 35.1267 12.4356Z" fill="#A0D9E3"/>
</g>
</g>
<defs>
<clipPath id="clip0_407_6828">
<rect width="44" height="44" fill="white" transform="translate(4 4)"/>
</clipPath>
<clipPath id="clip1_407_6828">
<rect width="22.8261" height="17.4545" fill="white" transform="translate(15.087 6.27271)"/>
</clipPath>
</defs>
</svg>
