<svg width="52" height="52" viewBox="0 0 52 52" fill="none" xmlns="http://www.w3.org/2000/svg">
<g clip-path="url(#clip0_407_6926)">
<path d="M2 24.618V31C2 31.5523 2.44771 32 3 32H49C49.5523 32 50 31.5523 50 31V25.3084C50 24.8369 49.6706 24.4294 49.2095 24.3306L36.2888 21.5619C36.1003 21.5215 35.9275 21.4275 35.7912 21.2912L29.7929 15.2929C29.6054 15.1054 29.351 15 29.0858 15H12.5352C12.2008 15 11.8886 15.1671 11.7031 15.4453L8.14731 20.779C8.05078 20.9238 7.91813 21.0409 7.76247 21.1188L2.55279 23.7236C2.214 23.893 2 24.2393 2 24.618Z" stroke="#595959" stroke-width="1.4"/>
<rect x="46" y="26" width="4" height="2" rx="1" fill="#595959"/>
<path d="M20.5 17H28.4555C28.4838 17 28.5108 17.012 28.5298 17.0331L32.8498 21.8331C32.9077 21.8975 32.862 22 32.7755 22H20.5M20.5 17H13.0566C13.0215 17 12.9889 17.0184 12.9709 17.0486L10.0909 21.8486C10.0509 21.9152 10.0989 22 10.1766 22H20.5M20.5 17V19.5V22" stroke="#595959" stroke-width="1.3"/>
<circle cx="11.25" cy="31.25" r="4.55" fill="#A0D9E3" stroke="#595959" stroke-width="1.4"/>
<circle cx="11.25" cy="31.2499" r="1.6" stroke="#595959"/>
<circle cx="37.25" cy="31.25" r="4.55" fill="#A0D9E3" stroke="#595959" stroke-width="1.4"/>
<circle cx="37.25" cy="31.2499" r="1.6" stroke="#595959"/>
</g>
<defs>
<clipPath id="clip0_407_6926">
<rect width="49.25" height="49.25" fill="white" transform="translate(1.375 1.375)"/>
</clipPath>
</defs>
</svg>
