<svg width="52" height="52" viewBox="0 0 52 52" fill="none" xmlns="http://www.w3.org/2000/svg">
<path d="M16.6833 38.9104C16.7672 38.533 16.5292 38.1591 16.1519 38.0752C15.7745 37.9913 15.4005 38.2293 15.3167 38.6067L16.6833 38.9104ZM36.6833 38.6067C36.5995 38.2293 36.2255 37.9913 35.8481 38.0752C35.4708 38.1591 35.2328 38.533 35.3167 38.9104L36.6833 38.6067ZM20 32.6395L19.869 31.9519L20 32.6395ZM32.5 32.6395L32.631 31.9519L32.6183 31.9494L32.6054 31.9475L32.5 32.6395ZM30.215 32.2913L30.1095 32.9833L30.215 32.2913ZM41.8365 39.2775L41.146 39.3925L41.8365 39.2775ZM36.0017 33.3065L35.8707 33.9941L36.0017 33.3065ZM22.0344 32.0523L22.7249 32.1674L22.0344 32.0523ZM21.7946 32.2977L21.6636 31.61L21.7946 32.2977ZM42.4418 42.9092L41.7513 43.0243L42.4418 42.9092ZM9.58113 42.8935L8.8978 42.7416L9.58113 42.8935ZM15.3167 38.6067L14.3167 43.1067L15.6833 43.4104L16.6833 38.9104L15.3167 38.6067ZM15 42.5585H9.87398V43.9585H15V42.5585ZM10.2645 43.0453L11.1414 39.0992L9.77472 38.7954L8.8978 42.7416L10.2645 43.0453ZM22.7249 32.1674L23.1905 29.3736L21.8095 29.1435L21.3439 31.9372L22.7249 32.1674ZM15 43.9585H37V42.5585H15V43.9585ZM37.6833 43.1067L36.6833 38.6067L35.3167 38.9104L36.3167 43.4104L37.6833 43.1067ZM37 43.9585H42.1459V42.5585H37V43.9585ZM43.1323 42.7941L42.527 39.1624L41.146 39.3925L41.7513 43.0243L43.1323 42.7941ZM30.6547 31.929L30.1905 29.1435L28.8095 29.3736L29.2738 32.1591L30.6547 31.929ZM16.3493 34.0475L20.131 33.3271L19.869 31.9519L16.0873 32.6722L16.3493 34.0475ZM20.131 33.3271L21.9256 32.9853L21.6636 31.61L19.869 31.9519L20.131 33.3271ZM36.1327 32.6189L32.631 31.9519L32.369 33.3271L35.8707 33.9941L36.1327 32.6189ZM32.6054 31.9475L30.3204 31.5993L30.1095 32.9833L32.3946 33.3315L32.6054 31.9475ZM19.5105 33.1399C20.5225 34.13 22.3807 35.2823 24.7384 35.6194C27.1231 35.9602 29.9789 35.4604 32.9266 33.1945L32.0734 32.0845C29.4211 34.1233 26.9436 34.5203 24.9366 34.2334C22.9026 33.9427 21.3109 32.9427 20.4895 32.1391L19.5105 33.1399ZM29.2738 32.1591C29.3449 32.5857 29.682 32.9182 30.1095 32.9833L30.3204 31.5993C30.4914 31.6253 30.6263 31.7584 30.6547 31.929L29.2738 32.1591ZM42.527 39.1624C41.9761 35.8574 39.4241 33.2458 36.1327 32.6189L35.8707 33.9941C38.5862 34.5113 40.6916 36.6659 41.146 39.3925L42.527 39.1624ZM21.3439 31.9372C21.3714 31.772 21.499 31.6414 21.6636 31.61L21.9256 32.9853C22.337 32.9069 22.656 32.5805 22.7249 32.1674L21.3439 31.9372ZM42.1459 43.9585C42.7638 43.9585 43.2338 43.4037 43.1323 42.7941L41.7513 43.0243C41.7107 42.7805 41.8987 42.5585 42.1459 42.5585V43.9585ZM11.1414 39.0992C11.7131 36.5265 13.7604 34.5406 16.3493 34.0475L16.0873 32.6722C12.9493 33.2699 10.4677 35.6771 9.77472 38.7954L11.1414 39.0992ZM9.87398 42.5585C10.1299 42.5585 10.32 42.7955 10.2645 43.0453L8.8978 42.7416C8.75902 43.3661 9.23424 43.9585 9.87398 43.9585V42.5585Z" fill="#595959"/>
<path d="M33 24.2585C33.3334 23.2585 33.9 19.9585 33.5 14.7585C33.1 9.55852 28.3334 8.59185 26 8.75852C16.5 8.75852 18.5 20.2585 18.5 22.2585C18.5 24.2585 21.5 30.7585 26 30.7585C29.6 30.7585 32.1667 26.4252 33 24.2585Z" stroke="#595959" stroke-width="1.4"/>
<rect x="18.5" y="15.7412" width="16" height="6" fill="#A0D9E3"/>
<path d="M17.5 15.7585V15.5585C17.5 15.3929 17.6343 15.2585 17.8 15.2585H34.2C34.3657 15.2585 34.5 15.3929 34.5 15.5585V15.7585M17.5 15.7585H15.8C15.6343 15.7585 15.5 15.8929 15.5 16.0585V18.7585M17.5 15.7585V21.7585M17.5 21.7585V21.9585C17.5 22.1242 17.6343 22.2585 17.8 22.2585H23.9618C23.9872 22.2585 24.0124 22.2553 24.037 22.249L24.4488 22.1425C25.4667 21.8792 26.5344 21.8748 27.5544 22.1298L27.9646 22.2324C27.9881 22.2382 28.0123 22.2412 28.0365 22.2413L34.1992 22.2577C34.3652 22.2582 34.5 22.1237 34.5 21.9577V21.7585M17.5 21.7585H15.8C15.6343 21.7585 15.5 21.6242 15.5 21.4585V18.7585M34.5 15.7585H36.2C36.3657 15.7585 36.5 15.8929 36.5 16.0585V21.4585C36.5 21.6242 36.3657 21.7585 36.2 21.7585H34.5M34.5 15.7585V21.7585M15.5 18.7585H13.3C13.1343 18.7585 13 18.8929 13 19.0585V35.2412" stroke="#595959" stroke-width="1.4"/>
</svg>
