<svg width="52" height="52" viewBox="0 0 52 52" fill="none" xmlns="http://www.w3.org/2000/svg">
<path d="M18.5319 17.2872C17.2042 9.32121 22.9574 7.32972 25.9999 7.32972C28.9042 7.19142 34.5468 8.9893 33.8829 17.2872L32.2234 16.8723C32.0851 16.3191 31.4766 15.1297 30.1489 14.7978C28.8212 14.4659 26.8297 13.8297 25.9999 13.5531L21.4361 15.2127L19.7766 16.8723L18.5319 17.2872Z" fill="#A0D9E3"/>
<g clip-path="url(#clip0_407_7245)">
<path d="M9.92155 41.1593C9.75676 41.6552 9.71209 42.1832 9.79124 42.6997C9.87039 43.2163 10.0711 43.7067 10.3768 44.1305C10.6825 44.5543 11.0845 44.8995 11.5497 45.1376C12.0149 45.3757 12.53 45.4999 13.0526 45.5H38.9473C39.4698 45.4999 39.9848 45.3757 40.45 45.1376C40.9151 44.8996 41.317 44.5545 41.6228 44.1307C41.9285 43.707 42.1292 43.2167 42.2084 42.7002C42.2876 42.1837 42.243 41.6558 42.0784 41.16L39.6409 33.8455C39.4695 33.3457 39.261 32.8594 39.0169 32.3908L39.1943 31.7161C39.2708 31.4252 39.2795 31.1206 39.2198 30.8259C39.16 30.5311 39.0335 30.2539 38.8498 30.0157C38.6662 29.7775 38.4304 29.5846 38.1605 29.4519C37.8906 29.3191 37.5938 29.2501 37.2931 29.25H36.5696C34.6546 27.575 32.1971 26.6512 29.653 26.65H29.25V26.1794C30.4221 25.5654 31.4166 24.6602 32.1379 23.5508C32.5104 22.737 32.7473 21.8677 32.8393 20.9775C33.3026 20.8463 33.7105 20.5676 34.0011 20.1837C34.2918 19.7997 34.4494 19.3315 34.45 18.85V14.95C34.45 12.7089 33.5597 10.5596 31.975 8.97495C30.3903 7.39027 28.241 6.5 26 6.5C23.7589 6.5 21.6096 7.39027 20.0249 8.97495C18.4402 10.5596 17.55 12.7089 17.55 14.95V18.85C17.5505 19.3315 17.7081 19.7997 17.9988 20.1837C18.2894 20.5676 18.6973 20.8463 19.1607 20.9775C19.2526 21.8678 19.4897 22.7371 19.8627 23.5508C20.5837 24.6602 21.578 25.5654 22.75 26.1794V26.65H22.347C19.8028 26.6512 17.3453 27.575 15.4303 29.25H14.7069C14.406 29.25 14.1092 29.319 13.8392 29.4517C13.5692 29.5844 13.3333 29.7772 13.1496 30.0155C12.9659 30.2537 12.8393 30.5309 12.7795 30.8257C12.7198 31.1205 12.7285 31.4252 12.805 31.7161L12.9831 32.3914C12.7384 32.8604 12.5294 33.3471 12.3578 33.8475L9.92155 41.1593ZM15.6 44.2V42.9H36.4V44.2H15.6ZM40.846 41.572C40.9452 41.8725 40.9717 42.1923 40.9233 42.505C40.875 42.8177 40.7532 43.1145 40.5678 43.371C40.3825 43.6275 40.139 43.8363 39.8573 43.9805C39.5756 44.1246 39.2637 44.1998 38.9473 44.2H37.7V42.9C37.6987 42.5887 37.5858 42.2881 37.3817 42.053C37.1776 41.8179 36.8959 41.6638 36.5878 41.6188L38.4728 34.4532L40.846 41.572ZM34.3661 29.25H28.5811C28.8766 28.8673 29.0821 28.423 29.1824 27.95H29.651C31.3111 27.9507 32.9402 28.3998 34.3661 29.25ZM26 7.8C27.8956 7.80224 29.7129 8.55626 31.0533 9.89666C32.3937 11.2371 33.1477 13.0544 33.15 14.95V16.835C33.0479 16.7878 32.9423 16.7486 32.8341 16.718C32.7174 16.1095 32.4079 15.5547 31.9513 15.1358C31.4947 14.7169 30.9154 14.4562 30.2991 14.3923C29.0055 14.22 27.7751 13.7286 26.7189 12.9623C26.508 12.8173 26.2581 12.7397 26.0022 12.7397C25.7463 12.7397 25.4965 12.8173 25.2856 12.9623C24.2397 13.7345 23.0138 14.2268 21.7243 14.3923C21.1027 14.4493 20.5167 14.7073 20.055 15.1274C19.5933 15.5474 19.2812 16.1065 19.1659 16.7199C19.0583 16.7504 18.9533 16.7893 18.8519 16.8363V14.95C18.8541 13.0547 19.6079 11.2377 20.9479 9.89734C22.2878 8.557 24.1047 7.80275 26 7.8ZM21.0223 22.9632C20.6706 22.1428 20.4633 21.2678 20.4093 20.3769C20.4008 20.2103 20.3286 20.0533 20.2076 19.9385C20.0866 19.8237 19.9261 19.7598 19.7593 19.76C19.518 19.76 19.2865 19.6641 19.1158 19.4935C18.9452 19.3228 18.8493 19.0913 18.8493 18.85C18.8493 18.6087 18.9452 18.3772 19.1158 18.2065C19.2865 18.0359 19.518 17.94 19.7593 17.94C19.9317 17.94 20.097 17.8715 20.2189 17.7496C20.3408 17.6277 20.4093 17.4624 20.4093 17.29C20.4079 16.8937 20.5532 16.5108 20.8172 16.2153C21.0813 15.9197 21.4453 15.7322 21.8393 15.689C23.3371 15.5023 24.7614 14.9323 25.9746 14.0341C27.2139 14.9329 28.6608 15.5029 30.1801 15.691C30.5716 15.7352 30.9327 15.9233 31.1932 16.2188C31.4538 16.5143 31.5952 16.8961 31.59 17.29C31.59 17.4624 31.6584 17.6277 31.7803 17.7496C31.9022 17.8715 32.0676 17.94 32.24 17.94C32.4813 17.94 32.7128 18.0359 32.8834 18.2065C33.0541 18.3772 33.15 18.6087 33.15 18.85C33.15 19.0913 33.0541 19.3228 32.8834 19.4935C32.7128 19.6641 32.4813 19.76 32.24 19.76C32.0732 19.7598 31.9127 19.8237 31.7917 19.9385C31.6707 20.0533 31.5985 20.2103 31.59 20.3769C31.536 21.2677 31.3289 22.1427 30.9777 22.9632C30.3452 24.2118 27.4137 26 26 26C24.5862 26 21.6547 24.2118 21.0223 22.9632ZM26 27.3C26.6737 27.265 27.3351 27.1045 27.95 26.8268V27.3C27.95 27.8172 27.7445 28.3132 27.3788 28.6789C27.0131 29.0446 26.5171 29.25 26 29.25C25.4828 29.25 24.9868 29.0446 24.6211 28.6789C24.2554 28.3132 24.05 27.8172 24.05 27.3V26.8268C24.6648 27.1045 25.3262 27.265 26 27.3ZM22.347 27.95H22.815C22.9152 28.423 23.1207 28.8673 23.4162 29.25H17.6312C19.0573 28.3997 20.6866 27.9506 22.347 27.95ZM14.1791 30.81C14.2411 30.729 14.321 30.6634 14.4126 30.6183C14.5041 30.5732 14.6048 30.5498 14.7069 30.55H37.2931C37.3949 30.5499 37.4954 30.5733 37.5868 30.6181C37.6782 30.663 37.7581 30.7283 37.8203 30.8089C37.8826 30.8895 37.9254 30.9834 37.9457 31.0832C37.966 31.183 37.9631 31.2861 37.9372 31.3846L35.2488 41.6H16.7511L14.0627 31.3846C14.0366 31.2863 14.0336 31.1834 14.0538 31.0837C14.0739 30.9841 14.1168 30.8904 14.1791 30.81ZM15.4141 41.6195C15.1057 41.664 14.8237 41.8178 14.6192 42.0528C14.4147 42.2879 14.3014 42.5885 14.3 42.9V44.2H13.0526C12.7361 44.1998 12.4241 44.1246 12.1424 43.9804C11.8606 43.8363 11.617 43.6274 11.4317 43.3708C11.2464 43.1142 11.1246 42.8173 11.0763 42.5045C11.028 42.1917 11.0546 41.8719 11.154 41.5714L13.5258 34.4532L15.4141 41.6195Z" fill="#595959"/>
<path d="M26 39.65C27.792 39.65 29.25 38.4839 29.25 37.05C29.25 35.6161 27.792 34.45 26 34.45C24.2079 34.45 22.75 35.6161 22.75 37.05C22.75 38.4839 24.2079 39.65 26 39.65ZM26 35.75C27.0569 35.75 27.95 36.3454 27.95 37.05C27.95 37.7546 27.0569 38.35 26 38.35C24.9431 38.35 24.05 37.7546 24.05 37.05C24.05 36.3454 24.9431 35.75 26 35.75Z" fill="#595959"/>
</g>
<defs>
<clipPath id="clip0_407_7245">
<rect width="39" height="39" fill="white" transform="translate(6.5 6.5)"/>
</clipPath>
</defs>
</svg>
