<svg width="52" height="52" viewBox="0 0 52 52" fill="none" xmlns="http://www.w3.org/2000/svg">
<g clip-path="url(#clip0_407_7098)">
<path d="M26.5 7C16.2916 7 8 15.2916 8 25.5C8 35.7084 16.2916 44 26.5 44C36.7084 44 45 35.7084 45 25.5C45 15.2916 36.7084 7 26.5 7ZM26.5 42.3952C17.1831 42.3952 9.60482 34.8169 9.60482 25.5C9.60482 16.1831 17.1831 8.60482 26.5 8.60482C35.8169 8.60482 43.3952 16.1831 43.3952 25.5C43.3952 34.8169 35.8169 42.3952 26.5 42.3952Z" fill="#595959"/>
<path d="M23.6017 17.0901V22.2982H17.9385V28.366H23.6017V34.1303H29.5683V28.366H35.2315V22.2982H29.5683V17.0901H23.6017Z" fill="#A0D9E3"/>
<path d="M35.2721 21.8936H30.1752V16.7967C30.1752 16.3922 29.8515 16.0686 29.447 16.0686H23.622C23.2175 16.0686 22.8939 16.3922 22.8939 16.7967V21.8936H17.797C17.3925 21.8936 17.0688 22.2172 17.0688 22.6218V28.4468C17.0688 28.8513 17.3925 29.1749 17.797 29.1749H22.8939V34.2718C22.8939 34.6763 23.2175 34.9999 23.622 34.9999H29.447C29.8515 34.9999 30.1752 34.6763 30.1752 34.2718V29.1749H35.2721C35.6766 29.1749 36.0002 28.8513 36.0002 28.4468V22.6218C35.9597 22.2172 35.6361 21.8936 35.2721 21.8936ZM34.5844 27.7187H34.5439H29.447C29.0425 27.7187 28.7189 28.0423 28.7189 28.4468V33.5437H24.3501V28.4468C24.3501 28.0423 24.0265 27.7187 23.622 27.7187H18.5251V23.3499H23.622C24.0265 23.3499 24.3501 23.0263 24.3501 22.6218V17.5249H28.7594V22.6218C28.7594 23.0263 29.083 23.3499 29.4875 23.3499H34.5844V27.7187Z" fill="#595959"/>
</g>
<defs>
<clipPath id="clip0_407_7098">
<rect width="37" height="37" fill="white" transform="translate(8 7)"/>
</clipPath>
</defs>
</svg>
