<svg width="52" height="52" viewBox="0 0 52 52" fill="none" xmlns="http://www.w3.org/2000/svg">
<path d="M37.1 18.25L43.3584 29.0066C43.438 29.1435 43.6103 29.1949 43.7519 29.1241L47.2831 27.3585C47.4096 27.2952 47.4747 27.1521 47.4394 27.0152L43.6147 12.1946C43.5607 11.985 43.3091 11.9 43.1389 12.0337L36.708 17.0866C36.5891 17.18 36.5583 17.3472 36.6361 17.4768L37.1 18.25ZM37.1 18.25L34.5758 18.6006C33.866 18.6992 33.1435 18.6528 32.4522 18.4642L28.5195 17.3917C28.1869 17.301 27.8318 17.3461 27.5325 17.5172L21.3108 21.0724C21.1487 21.165 21.1096 21.3812 21.2475 21.507C22.2711 22.4414 24.7476 23.415 28.3117 21.3608C28.4236 21.2963 28.5661 21.3067 28.6642 21.3907L38.3317 29.6772C38.7559 30.0408 39 30.5715 39 31.1302V31.1302C39 31.7901 38.5552 32.367 37.9171 32.535L37.8125 32.5625C37.3605 32.6814 36.8791 32.5959 36.4957 32.3284L28.5 26.75" stroke="#595959" stroke-width="1.4" stroke-linecap="round"/>
<path d="M27.9069 30.1804C27.5923 29.9557 27.1551 30.0285 26.9304 30.3431C26.7057 30.6577 26.7785 31.0949 27.0931 31.3196L27.9069 30.1804ZM36.5063 32.7753L37.1854 32.6055L36.5063 32.7753ZM33.5153 35.0467L33.1085 35.6163L33.5153 35.0467ZM27.0931 31.3196L33.1085 35.6163L33.9222 34.477L27.9069 30.1804L27.0931 31.3196ZM37.3195 33.142L37.1854 32.6055L35.8272 32.9451L35.9613 33.4815L37.3195 33.142ZM37.2 32.7239V32.25H35.8V32.7239H37.2ZM37.1854 32.6055C37.1951 32.6443 37.2 32.684 37.2 32.7239H35.8C35.8 32.7985 35.8091 32.8728 35.8272 32.9451L37.1854 32.6055ZM35.8835 35.9505C36.9971 35.5051 37.6104 34.3055 37.3195 33.142L35.9613 33.4815C36.0824 33.9659 35.8271 34.4652 35.3636 34.6507L35.8835 35.9505ZM33.1085 35.6163C33.9161 36.1932 34.9619 36.3191 35.8835 35.9505L35.3636 34.6507C34.8849 34.8421 34.3417 34.7767 33.9222 34.477L33.1085 35.6163Z" fill="#595959"/>
<path d="M25.8883 33.1676C25.5666 32.9531 25.132 33.04 24.9176 33.3617C24.7031 33.6834 24.79 34.118 25.1117 34.3324L25.8883 33.1676ZM30.7792 37.2695L30.3909 37.8519L30.7792 37.2695ZM25.1117 34.3324L30.3909 37.8519L31.1675 36.687L25.8883 33.1676L25.1117 34.3324ZM34.2709 35.4472L34.1791 35.0802L32.8209 35.4198L32.9127 35.7868L34.2709 35.4472ZM32.4867 38.2665C33.7772 38.0084 34.59 36.724 34.2709 35.4472L32.9127 35.7868C33.038 36.2881 32.7188 36.7924 32.2122 36.8937L32.4867 38.2665ZM30.3909 37.8519C31.0069 38.2626 31.7608 38.4117 32.4867 38.2665L32.2122 36.8937C31.8503 36.9661 31.4745 36.8917 31.1675 36.687L30.3909 37.8519Z" fill="#595959"/>
<path d="M25.3883 37.6676C25.0666 37.4531 24.632 37.54 24.4176 37.8617C24.2031 38.1834 24.29 38.618 24.6117 38.8324L25.3883 37.6676ZM30.2105 37.8025L29.5241 37.9398L30.2105 37.8025ZM26.9879 39.5753L26.5996 40.1577L26.9879 39.5753ZM24.6117 38.8324L26.5996 40.1577L27.3762 38.9928L25.3883 37.6676L24.6117 38.8324ZM30.8969 37.6652L30.6864 36.6127L29.3136 36.8873L29.5241 37.9398L30.8969 37.6652ZM29.3894 40.4482C30.497 40.0051 31.1309 38.835 30.8969 37.6652L29.5241 37.9398C29.6257 38.4477 29.3504 38.9559 28.8694 39.1483L29.3894 40.4482ZM26.5996 40.1577C27.425 40.7079 28.4683 40.8166 29.3894 40.4482L28.8694 39.1483C28.3764 39.3455 27.818 39.2874 27.3762 38.9928L26.5996 40.1577Z" fill="#595959"/>
<path d="M13.0053 28.1342L10.8982 30.0072C10.1674 30.6568 10.1973 31.8078 10.9608 32.4186C11.5611 32.8989 12.4201 32.8766 12.9947 32.3658L15.1018 30.4928C15.8326 29.8432 15.8027 28.6922 15.0392 28.0814C14.4389 27.6011 13.5799 27.6234 13.0053 28.1342Z" stroke="#595959" stroke-width="1.4"/>
<path d="M16.9758 29.6889L13.6179 32.767C12.7947 33.5215 12.897 34.848 13.8261 35.4674C14.5087 35.9225 15.4175 35.8325 15.9976 35.2524L19.2186 32.0314C19.9022 31.3478 19.8398 30.2219 19.085 29.618C18.4606 29.1184 17.5652 29.1485 16.9758 29.6889Z" stroke="#595959" stroke-width="1.4"/>
<path d="M19.2252 32.4186L16.7573 34.6808C15.7237 35.6282 16.0544 37.3329 17.3672 37.8252C18.0571 38.0839 18.8345 37.9155 19.3555 37.3945L21.7228 35.0272C22.4282 34.3218 22.4282 33.1782 21.7228 32.4728C21.0391 31.7891 19.938 31.7651 19.2252 32.4186Z" stroke="#595959" stroke-width="1.4"/>
<path d="M22.4711 35.1503L20.6115 36.7774C19.9899 37.3214 19.9066 38.2583 20.4227 38.9033C20.9974 39.6217 22.0689 39.6811 22.7195 39.0305L24.4667 37.2833C25.0374 36.7126 25.0374 35.7874 24.4667 35.2167C23.9227 34.6727 23.0501 34.6437 22.4711 35.1503Z" stroke="#595959" stroke-width="1.4"/>
<path d="M5.22307 27.6115L8.258 29.129C8.3955 29.1978 8.56272 29.1514 8.64526 29.0217L9.28135 28.0222L15.5 18.25L15.6227 18.0047C15.8406 17.5688 15.7126 17.0392 15.3196 16.751L8.85721 12.012C8.68609 11.8865 8.44234 11.9734 8.38931 12.1789L4.70201 26.4672C4.58418 26.9238 4.80131 27.4007 5.22307 27.6115Z" fill="#A0D9E3"/>
<path d="M26 18.5L24.1984 17.8244C24.0676 17.7753 23.928 17.7542 23.7885 17.7624L15.5 18.25M15.5 18.25L15.6227 18.0047C15.8406 17.5688 15.7126 17.0392 15.3196 16.751L8.85721 12.012C8.68609 11.8865 8.44234 11.9734 8.38931 12.1789L4.70201 26.4672C4.58418 26.9238 4.80131 27.4007 5.22307 27.6115L8.258 29.129C8.3955 29.1978 8.56272 29.1514 8.64526 29.0217L9.28135 28.0222L15.5 18.25Z" stroke="#595959" stroke-width="1.4"/>
<path d="M9.5 28.25L11 29.75M42.5 26.75L39 30.25" stroke="#595959" stroke-width="1.4"/>
</svg>
