<svg width="52" height="52" viewBox="0 0 52 52" fill="none" xmlns="http://www.w3.org/2000/svg">
<path d="M17.5 14.5V17.2C17.5 17.3657 17.6343 17.5 17.8 17.5H19.7714C19.9371 17.5 20.0714 17.3657 20.0714 17.2V14.7273C20.0714 14.4511 20.2953 14.2273 20.5714 14.2273H31.5C31.7761 14.2273 32 14.4511 32 14.7273V17.2C32 17.3657 32.1343 17.5 32.3 17.5H34.2C34.3657 17.5 34.5 17.3657 34.5 17.2V14.5C34.5 12.8431 33.1569 11.5 31.5 11.5H20.5C18.8431 11.5 17.5 12.8431 17.5 14.5Z" stroke="#595959" stroke-width="1.2"/>
<path d="M18.5 31.3538V27.6462C18.5 27.4805 18.6343 27.3462 18.8 27.3462H23.0462C23.2118 27.3462 23.3462 27.2118 23.3462 27.0462V22.8C23.3462 22.6343 23.4805 22.5 23.6462 22.5H27.3538C27.5195 22.5 27.6538 22.6343 27.6538 22.8V27.0462C27.6538 27.2118 27.7882 27.3462 27.9538 27.3462H32.2C32.3657 27.3462 32.5 27.4805 32.5 27.6462V31.3538C32.5 31.5195 32.3657 31.6538 32.2 31.6538H27.9538C27.7882 31.6538 27.6538 31.7882 27.6538 31.9538V36.2C27.6538 36.3657 27.5195 36.5 27.3538 36.5H23.6462C23.4805 36.5 23.3462 36.3657 23.3462 36.2V31.9538C23.3462 31.7882 23.2118 31.6538 23.0462 31.6538H18.8C18.6343 31.6538 18.5 31.5195 18.5 31.3538Z" fill="#A0D9E3" stroke="#595959" stroke-width="1.4"/>
<path d="M42.5 17.5H9.5C8.39543 17.5 7.5 18.3954 7.5 19.5V38.5C7.5 39.6046 8.39543 40.5 9.5 40.5H42.5C43.6046 40.5 44.5 39.6046 44.5 38.5V19.5C44.5 18.3954 43.6046 17.5 42.5 17.5Z" stroke="#595959" stroke-width="1.4"/>
</svg>
