<svg width="45" height="45" viewBox="0 0 45 45" fill="none" xmlns="http://www.w3.org/2000/svg">
<path d="M39.1413 13.3148L39.142 13.3157C40.4486 14.9566 41.15 17.0184 41.15 19.2978C41.15 22.4836 39.1557 26.1557 34.874 30.2191C31.4013 33.5148 27.2793 36.227 25.1232 37.5554C24.4921 37.9425 23.7552 38.15 23 38.15C22.245 38.15 21.5083 37.9426 20.8772 37.5557C18.72 36.2277 14.5992 33.5152 11.126 30.2191C6.84421 26.1539 4.85 22.4836 4.85 19.2978C4.85 17.0184 5.5514 14.9566 6.85799 13.3157L6.85869 13.3148C8.09961 11.7522 9.85786 10.6285 11.8552 10.1322C13.8527 9.63582 15.9664 9.79777 17.8544 10.5904L17.8544 10.5905L17.8601 10.5928C19.5518 11.2887 21.0789 12.4757 22.3297 14.0798L22.9992 14.9384L23.6697 14.0806C24.9206 12.4802 26.4483 11.2924 28.1414 10.5922L28.1456 10.5904C30.0336 9.79777 32.1473 9.63582 34.1448 10.1322C36.1421 10.6285 37.9004 11.7522 39.1413 13.3148Z" stroke="#595959" stroke-width="1.7"/>
<path d="M17 25.8923V23.1077C17 22.942 17.1343 22.8077 17.3 22.8077H20.5077C20.6734 22.8077 20.8077 22.6734 20.8077 22.5077V19.3C20.8077 19.1343 20.942 19 21.1077 19H23.8923C24.058 19 24.1923 19.1343 24.1923 19.3V22.5077C24.1923 22.6734 24.3266 22.8077 24.4923 22.8077H27.7C27.8657 22.8077 28 22.942 28 23.1077V25.8923C28 26.058 27.8657 26.1923 27.7 26.1923H24.4923C24.3266 26.1923 24.1923 26.3266 24.1923 26.4923V29.7C24.1923 29.8657 24.058 30 23.8923 30H21.1077C20.942 30 20.8077 29.8657 20.8077 29.7V26.4923C20.8077 26.3266 20.6734 26.1923 20.5077 26.1923H17.3C17.1343 26.1923 17 26.058 17 25.8923Z" fill="#A0D9E3" stroke="#595959" stroke-width="1.4"/>
</svg>
