<svg width="52" height="52" viewBox="0 0 52 52" fill="none" xmlns="http://www.w3.org/2000/svg">
<path d="M36.8088 6.3042L33.9842 9.12877L43.0228 18.1674L45.8474 15.3428L36.8088 6.3042Z" fill="#A0D9E3"/>
<path d="M23.5445 24.5669C23.4791 24.6297 23.4271 24.7051 23.3916 24.7885C23.3561 24.8719 23.3378 24.9616 23.3378 25.0523C23.3378 25.1429 23.3561 25.2327 23.3916 25.3161C23.4271 25.3995 23.4791 25.4749 23.5445 25.5377L25.0041 26.9973L26.4637 28.4569C26.5927 28.5851 26.7672 28.6571 26.949 28.6571C27.1309 28.6571 27.3054 28.5851 27.4344 28.4569L35.2281 20.6701C35.3564 20.5411 35.4283 20.3666 35.4283 20.1847C35.4283 20.0028 35.3564 19.8283 35.2281 19.6993L33.7616 18.2328L32.302 16.7732C32.1731 16.645 31.9986 16.573 31.8167 16.573C31.6348 16.573 31.4603 16.645 31.3313 16.7732L23.5445 24.5669Z" fill="#A0D9E3"/>
<path d="M27.9267 25.0518L26.953 24.0781L25.9793 25.0518L26.953 26.0254L27.9267 25.0518Z" fill="#595959"/>
<path d="M32.7941 20.1836L31.8205 19.2101L27.9264 23.1042L28.9 24.0777L32.7941 20.1836Z" fill="#595959"/>
<path d="M6.98594 36.2573L33.7613 9.47502C33.6333 9.34713 33.5317 9.19527 33.4624 9.0281C33.3931 8.86094 33.3575 8.68176 33.3575 8.5008C33.3575 8.31985 33.3931 8.14067 33.4624 7.9735C33.5317 7.80634 33.6333 7.65448 33.7613 7.52659L35.7097 5.57817C35.8376 5.45014 35.9895 5.34857 36.1566 5.27928C36.3238 5.20998 36.503 5.17432 36.6839 5.17432C36.8649 5.17432 37.0441 5.20998 37.2112 5.27928C37.3784 5.34857 37.5303 5.45014 37.6582 5.57817L46.4226 14.3426C46.5507 14.4705 46.6522 14.6224 46.7215 14.7895C46.7908 14.9567 46.8265 15.1359 46.8265 15.3169C46.8265 15.4978 46.7908 15.677 46.7215 15.8442C46.6522 16.0113 46.5507 16.1632 46.4226 16.2911L44.4742 18.2326C44.3467 18.3613 44.1949 18.4634 44.0277 18.5332C43.8605 18.6029 43.6812 18.6388 43.5 18.6388C43.3188 18.6388 43.1395 18.6029 42.9722 18.5332C42.805 18.4634 42.6533 18.3613 42.5258 18.2326L15.7435 45.0148C14.5826 46.1743 13.0089 46.8256 11.3682 46.8256C9.72742 46.8256 8.15375 46.1743 6.99282 45.0148L6.98594 45.008C6.41133 44.4334 5.95553 43.7513 5.64455 43.0006C5.33357 42.2498 5.17352 41.4452 5.17352 40.6326C5.17352 39.82 5.33357 39.0154 5.64455 38.2647C5.95553 37.5139 6.41133 36.8318 6.98594 36.2573ZM43.5034 17.2618L45.4519 15.3134L43.0146 12.883L39.1178 8.98619L36.6874 6.54894L34.739 8.49736L43.5034 17.2618ZM35.7097 13.365L38.6358 16.2911L39.6066 15.3134L36.6874 12.3942L35.7097 13.365ZM7.95671 44.0303L7.96359 44.0441C8.86714 44.9459 10.0916 45.4524 11.3682 45.4524C12.6448 45.4524 13.8692 44.9459 14.7728 44.0441L41.555 17.2618L40.5774 16.2911L39.6066 17.2618C39.3469 17.5177 38.9969 17.6612 38.6324 17.6612C38.2678 17.6612 37.9178 17.5177 37.6582 17.2618L36.6874 16.2911L34.739 18.2326L35.7097 19.2103C35.8384 19.3378 35.9406 19.4895 36.0103 19.6567C36.08 19.8239 36.1159 20.0033 36.1159 20.1845C36.1159 20.3656 36.08 20.545 36.0103 20.7122C35.9406 20.8794 35.8384 21.0312 35.7097 21.1587L27.9229 28.9455C27.7954 29.0742 27.6437 29.1763 27.4764 29.246C27.3092 29.3158 27.1299 29.3517 26.9487 29.3517C26.7675 29.3517 26.5882 29.3158 26.421 29.246C26.2537 29.1763 26.102 29.0742 25.9745 28.9455L25.0037 27.9747L16.6592 36.3192C16.9677 36.8441 17.0937 37.4563 17.0177 38.0603C16.9418 38.6643 16.668 39.2262 16.2392 39.6584L13.32 42.5776C12.8033 43.0943 12.1024 43.3847 11.3716 43.3847C10.6408 43.3847 9.93995 43.0943 9.42319 42.5776C8.90644 42.0608 8.61613 41.36 8.61613 40.6292C8.61613 39.8984 8.90644 39.1975 9.42319 38.6807L12.3424 35.7615C12.7742 35.3322 13.3362 35.0581 13.9404 34.9821C14.5445 34.9062 15.1569 35.0326 15.6816 35.3416L24.0261 26.9971L23.0553 26.0263C22.9273 25.8984 22.8257 25.7466 22.7564 25.5794C22.6871 25.4122 22.6514 25.233 22.6514 25.0521C22.6514 24.8711 22.6871 24.692 22.7564 24.5248C22.8257 24.3576 22.9273 24.2058 23.0553 24.0779L30.8421 16.2911C30.969 16.1625 31.1201 16.0604 31.2868 15.9907C31.4534 15.9209 31.6322 15.885 31.8129 15.8849H31.8198C32.0004 15.885 32.1792 15.9209 32.3459 15.9907C32.5125 16.0604 32.6636 16.1625 32.7905 16.2911L33.7613 17.2618L35.7097 15.3134L34.739 14.3426C34.6109 14.2148 34.5094 14.0629 34.4401 13.8957C34.3708 13.7286 34.3351 13.5494 34.3351 13.3684C34.3351 13.1875 34.3708 13.0083 34.4401 12.8411C34.5094 12.674 34.6109 12.5221 34.739 12.3942L35.7097 11.4234L34.739 10.4458L7.95671 37.228C7.5098 37.6745 7.15527 38.2047 6.91339 38.7883C6.6715 39.3719 6.54699 39.9974 6.54699 40.6292C6.54699 41.2609 6.6715 41.8864 6.91339 42.47C7.15527 43.0536 7.5098 43.5838 7.95671 44.0303ZM31.8198 17.2618L24.0261 25.0486L26.9521 27.9747L34.739 20.181L31.8198 17.2618ZM15.2616 36.7323C15.0036 36.4759 14.6546 36.3319 14.2908 36.3319C13.927 36.3319 13.578 36.4759 13.32 36.7323L10.394 39.6584C10.266 39.7863 10.1645 39.9382 10.0953 40.1054C10.0261 40.2725 9.99043 40.4517 9.99043 40.6326C9.99043 40.8135 10.0261 40.9927 10.0953 41.1599C10.1645 41.327 10.266 41.4789 10.394 41.6068C10.5219 41.7348 10.6738 41.8362 10.8409 41.9055C11.0081 41.9747 11.1872 42.0104 11.3682 42.0104C11.5491 42.0104 11.7283 41.9747 11.8954 41.9055C12.0626 41.8362 12.2145 41.7348 12.3424 41.6068L15.2616 38.6807C15.3896 38.5529 15.4912 38.401 15.5605 38.2338C15.6298 38.0667 15.6654 37.8875 15.6654 37.7065C15.6654 37.5256 15.6298 37.3464 15.5605 37.1792C15.4912 37.0121 15.3896 36.8602 15.2616 36.7323Z" fill="#595959"/>
</svg>
