<svg width="52" height="52" viewBox="0 0 52 52" fill="none" xmlns="http://www.w3.org/2000/svg">
<path fill-rule="evenodd" clip-rule="evenodd" d="M9.04327 10.5241C9.04327 10.1018 9.38557 9.75952 9.80781 9.75952H14.3318C14.6797 9.75952 14.9837 9.99443 15.0715 10.3311L18.5593 32.6337H38.9239C39.3462 32.6337 39.6885 32.976 39.6885 33.3983C39.6885 33.8205 39.3462 34.1628 38.9239 34.1628H17.9687C17.6207 34.1628 17.3167 33.9279 17.2289 33.5912L13.7411 11.2886H9.80781C9.38557 11.2886 9.04327 10.9463 9.04327 10.5241Z" fill="#595959"/>
<path fill-rule="evenodd" clip-rule="evenodd" d="M15.5033 15.9416C15.5053 15.5194 15.8492 15.1787 16.2714 15.1807L42.1958 15.278C42.44 15.2792 42.6691 15.397 42.812 15.595C42.955 15.7931 42.9948 16.0475 42.919 16.2797L39.2387 29.7722C39.136 30.0867 38.8427 30.2995 38.5119 30.2995H17.524C17.1018 30.2995 16.7595 29.9572 16.7595 29.535C16.7595 29.1127 17.1018 28.7705 17.524 28.7705H37.9571L41.1401 16.8022L16.2642 16.7097C15.842 16.7077 15.5013 16.3638 15.5033 15.9416Z" fill="#595959"/>
<path d="M24.1963 38.7034C24.1963 40.6568 22.603 42.2403 20.6376 42.2403C18.6722 42.2403 17.079 40.6568 17.079 38.7034C17.079 36.75 18.6722 35.1665 20.6376 35.1665C22.603 35.1665 24.1963 36.75 24.1963 38.7034Z" fill="#A0D9E3"/>
<path fill-rule="evenodd" clip-rule="evenodd" d="M20.6376 40.7113C21.7674 40.7113 22.6672 39.8035 22.6672 38.7034C22.6672 37.6033 21.7674 36.6956 20.6376 36.6956C19.5079 36.6956 18.608 37.6033 18.608 38.7034C18.608 39.8035 19.5079 40.7113 20.6376 40.7113ZM20.6376 42.2403C22.603 42.2403 24.1963 40.6568 24.1963 38.7034C24.1963 36.75 22.603 35.1665 20.6376 35.1665C18.6722 35.1665 17.079 36.75 17.079 38.7034C17.079 40.6568 18.6722 42.2403 20.6376 42.2403Z" fill="#595959"/>
<path d="M38.9239 38.7034C38.9239 40.6568 37.3307 42.2403 35.3653 42.2403C33.3999 42.2403 31.8066 40.6568 31.8066 38.7034C31.8066 36.75 33.3999 35.1665 35.3653 35.1665C37.3307 35.1665 38.9239 36.75 38.9239 38.7034Z" fill="#A0D9E3"/>
<path fill-rule="evenodd" clip-rule="evenodd" d="M35.3653 40.7113C36.495 40.7113 37.3948 39.8035 37.3948 38.7034C37.3948 37.6033 36.495 36.6956 35.3653 36.6956C34.2355 36.6956 33.3357 37.6033 33.3357 38.7034C33.3357 39.8035 34.2355 40.7113 35.3653 40.7113ZM35.3653 42.2403C37.3307 42.2403 38.9239 40.6568 38.9239 38.7034C38.9239 36.75 37.3307 35.1665 35.3653 35.1665C33.3999 35.1665 31.8066 36.75 31.8066 38.7034C31.8066 40.6568 33.3999 42.2403 35.3653 42.2403Z" fill="#595959"/>
<path fill-rule="evenodd" clip-rule="evenodd" d="M21 24.672C21 24.2498 21.3423 23.9075 21.7645 23.9075H30.6611C31.0834 23.9075 31.4257 24.2498 31.4257 24.672C31.4257 25.0942 31.0834 25.4365 30.6611 25.4365H21.7645C21.3423 25.4365 21 25.0942 21 24.672Z" fill="#595959"/>
<path fill-rule="evenodd" clip-rule="evenodd" d="M21 20.2506C21 19.8284 21.3423 19.4861 21.7645 19.4861H34.3244C34.7467 19.4861 35.089 19.8284 35.089 20.2506C35.089 20.6729 34.7467 21.0151 34.3244 21.0151H21.7645C21.3423 21.0151 21 20.6729 21 20.2506Z" fill="#595959"/>
</svg>
