<svg width="52" height="52" viewBox="0 0 52 52" fill="none" xmlns="http://www.w3.org/2000/svg">
<g clip-path="url(#clip0_407_6630)">
<path d="M46.1701 41.909C46.1713 41.8766 46.1718 41.8444 46.1718 41.8125C46.1709 41.0006 45.848 40.2221 45.2738 39.648C44.6997 39.0739 43.9213 38.7509 43.1093 38.75V24.5859L45.8656 22.5187C45.9613 22.447 46.0389 22.3537 46.0921 22.2465C46.1452 22.1393 46.1726 22.0212 46.1718 21.9015C46.1711 21.7818 46.1423 21.664 46.0878 21.5575C46.0333 21.451 45.9545 21.3587 45.8579 21.2881L39.2812 16.482V8.125C39.4843 8.125 39.679 8.04434 39.8226 7.90075C39.9662 7.75717 40.0468 7.56243 40.0468 7.35938V4.29688C40.0468 4.09382 39.9662 3.89908 39.8226 3.7555C39.679 3.61191 39.4843 3.53125 39.2812 3.53125H31.625C31.4219 3.53125 31.2272 3.61191 31.0836 3.7555C30.94 3.89908 30.8593 4.09382 30.8593 4.29688V7.35938C30.8593 7.56243 30.94 7.75717 31.0836 7.90075C31.2272 8.04434 31.4219 8.125 31.625 8.125V10.8871L25.9517 6.74123C25.8206 6.64541 25.6624 6.59377 25.5 6.59377C25.3376 6.59377 25.1794 6.64541 25.0482 6.74123L5.142 21.2881C5.04538 21.3587 4.96666 21.451 4.91215 21.5575C4.85764 21.664 4.82886 21.7818 4.82812 21.9015C4.82737 22.0212 4.85469 22.1393 4.90787 22.2465C4.96105 22.3537 5.03861 22.447 5.13434 22.5187L7.89059 24.5859V38.75C7.07864 38.7509 6.30021 39.0739 5.72608 39.648C5.15195 40.2221 4.829 41.0006 4.82809 41.8125C4.82809 41.8444 4.82866 41.8766 4.82981 41.909C4.10753 42.0947 3.47783 42.5376 3.05887 43.1545C2.6399 43.7715 2.46046 44.5201 2.55421 45.26C2.64796 45.9998 3.00846 46.6801 3.56807 47.173C4.12768 47.666 4.84794 47.9378 5.59371 47.9375H45.4062C46.152 47.9378 46.8722 47.666 47.4319 47.173C47.9915 46.6801 48.352 45.9998 48.4457 45.26C48.5395 44.5201 48.36 43.7715 47.9411 43.1545C47.5221 42.5376 46.8924 42.0947 46.1701 41.909ZM32.3906 5.0625H38.5156V6.59375H32.3906V5.0625ZM33.1562 11.9531V8.125H37.75V15.363L33.0838 11.9531H33.1562ZM25.5 8.3076L44.1195 21.9143L42.3367 23.2514L25.9503 11.3339C25.8195 11.2387 25.6618 11.1874 25.5 11.1874C25.3381 11.1874 25.1805 11.2387 25.0496 11.3339L8.6632 23.2514L6.88044 21.9143L25.5 8.3076ZM4.06246 44.875C4.06289 44.473 4.22121 44.0872 4.50333 43.8008C4.78544 43.5144 5.16878 43.3503 5.57075 43.3438H5.57256C5.61171 43.3492 5.65085 43.3539 5.69076 43.3565C5.81763 43.3645 5.9445 43.3408 6.05992 43.2875C6.17534 43.2342 6.27568 43.153 6.35187 43.0512C6.42806 42.9495 6.47771 42.8303 6.49634 42.7046C6.51497 42.5788 6.502 42.4504 6.45858 42.3309C6.39522 42.1653 6.36162 41.9898 6.35934 41.8125C6.35982 41.4065 6.5213 41.0173 6.80836 40.7303C7.09542 40.4432 7.48462 40.2817 7.89059 40.2812V46.4062H5.59371C5.18775 46.4058 4.79855 46.2443 4.51149 45.9572C4.22443 45.6702 4.06295 45.281 4.06246 44.875ZM36.9843 46.4062H27.7968H29H35.5H36.9843ZM38.5156 46.4062H37.5C37.5 46.4062 36.7969 46.4062 36.3033 46.4062C35.8097 46.4062 35.3428 46.4062 35.1398 46.4062H34.5C34.2969 46.4062 33 46.4062 32.5 46.4062C32 46.4062 30.5 46.4062 30.5 46.4062H26.2656H9.42184V24.593L25.5 12.8998L41.5781 24.593V46.4062H38.5156ZM45.4062 46.4062H43.1093V40.2812C43.5153 40.2817 43.9045 40.4432 44.1916 40.7303C44.4786 41.0173 44.6401 41.4065 44.6406 41.8125C44.6383 41.9899 44.6047 42.1656 44.5413 42.3313C44.4979 42.4508 44.485 42.5792 44.5036 42.705C44.5222 42.8307 44.5719 42.9499 44.6481 43.0516C44.7243 43.1534 44.8246 43.2346 44.94 43.2879C45.0554 43.3412 45.1823 43.3649 45.3092 43.3569C45.3491 43.3543 45.3882 43.3496 45.4274 43.3441H45.4292C45.8353 43.3472 46.2236 43.5114 46.5086 43.8007C46.7936 44.0901 46.952 44.4808 46.9489 44.8869C46.9459 45.293 46.7817 45.6812 46.4923 45.9663C46.203 46.2513 45.8123 46.4093 45.4062 46.4062Z" fill="#595959"/>
<path d="M32.0383 27.9751L32.0389 27.9759C32.5694 28.6362 32.8588 29.4703 32.8588 30.4055C32.8588 31.668 32.0553 33.2106 30.1566 34.9967C28.6241 36.4382 26.7977 37.6303 25.8369 38.2171C25.6119 38.3537 25.3469 38.4282 25.0736 38.4282C24.8004 38.4282 24.5355 38.3538 24.3105 38.2172C23.3494 37.6307 21.5234 36.4385 19.9907 34.9968C18.0918 33.2098 17.2885 31.6679 17.2885 30.4055C17.2885 29.4703 17.5779 28.6362 18.1083 27.9759L18.1089 27.9751C18.6138 27.3449 19.3327 26.8878 20.1544 26.6854C20.9764 26.4829 21.8462 26.5492 22.6218 26.8719L22.6218 26.872L22.6268 26.874C23.3224 27.1576 23.9581 27.6445 24.4841 28.3131L25.0729 29.0616L25.6625 28.3138C26.1887 27.6467 26.825 27.1591 27.5218 26.8735L27.5218 26.8735L27.5254 26.8719C28.301 26.5492 29.1708 26.4829 29.9928 26.6854C30.8146 26.8878 31.5334 27.3449 32.0383 27.9751Z" fill="#A0D9E3" stroke="#595959" stroke-width="1.5"/>
</g>
<defs>
<clipPath id="clip0_407_6630">
<rect width="52" height="52" fill="white"/>
</clipPath>
</defs>
</svg>
