<svg width="52" height="52" viewBox="0 0 52 52" fill="none" xmlns="http://www.w3.org/2000/svg">
<rect width="52" height="52" fill="white"/>
<rect x="13" y="30" width="2" height="6" fill="#A0D9E3"/>
<rect x="36" y="30" width="2" height="6" fill="#A0D9E3"/>
<path d="M44.85 15.0334H36.9667V12.8834C36.9635 10.1141 34.7193 7.86983 31.95 7.8667H19.05C16.2807 7.86983 14.0365 10.1141 14.0333 12.8834V15.0334H6.15C4.96257 15.0334 4 15.9959 4 17.1834V31.5167C4.00376 32.4245 4.57736 33.2322 5.43333 33.5348V42.9834C5.43333 44.1708 6.39591 45.1334 7.58333 45.1334H43.4167C44.6041 45.1334 45.5667 44.1708 45.5667 42.9834V33.5348C46.4226 33.2322 46.9962 32.4245 47 31.5167V17.1834C47 15.9959 46.0374 15.0334 44.85 15.0334ZM15.4667 12.8834C15.469 10.9054 17.072 9.30236 19.05 9.30003H31.95C33.928 9.30236 35.531 10.9054 35.5333 12.8834V15.0334H34.0713L34.1 12.8834C34.0977 11.6969 33.1364 10.7357 31.95 10.7334H19.0235C17.837 10.7357 16.8758 11.6969 16.8735 12.8834V12.8905L16.8928 15.0334H15.4667V12.8834ZM32.6667 12.8733L32.638 15.0334H18.3262L18.3039 12.8834C18.3039 12.4876 18.6248 12.1667 19.0206 12.1667H31.95C32.3419 12.1667 32.6612 12.4814 32.6667 12.8733ZM44.1333 42.9834C44.1333 43.3791 43.8124 43.7 43.4167 43.7H7.58333C7.18755 43.7 6.86667 43.3791 6.86667 42.9834V33.6667H11.8833V35.8167C11.8833 36.2125 12.2042 36.5334 12.6 36.5334H15.4667C15.8624 36.5334 16.1833 36.2125 16.1833 35.8167V33.6667H34.8167V35.8167C34.8167 36.2125 35.1376 36.5334 35.5333 36.5334H38.4C38.7958 36.5334 39.1167 36.2125 39.1167 35.8167V33.6667H44.1333V42.9834ZM13.3167 35.1V31.5167C13.3163 31.3235 13.3959 31.1387 13.5367 31.0064C13.667 30.8725 13.8465 30.7979 14.0333 30.8C14.4291 30.8 14.75 31.1209 14.75 31.5167V32.95V35.1H13.3167ZM36.25 35.1V31.5167C36.25 31.1209 36.5709 30.8 36.9667 30.8C37.16 30.7994 37.345 30.8788 37.4776 31.0193C37.6106 31.1506 37.6848 31.3299 37.6833 31.5167V32.95V35.1H36.25ZM45.5667 31.5167C45.5667 31.9125 45.2458 32.2334 44.85 32.2334H39.1167V31.5167C39.1116 30.3314 38.1519 29.3718 36.9667 29.3667C35.7792 29.3667 34.8167 30.3293 34.8167 31.5167V32.2334H16.1833V31.5167C16.1833 30.3293 15.2208 29.3667 14.0333 29.3667C12.8487 29.3733 11.89 30.332 11.8833 31.5167V32.2334H6.15C5.75422 32.2334 5.43333 31.9125 5.43333 31.5167V17.1834C5.43333 16.7876 5.75422 16.4667 6.15 16.4667H44.85C45.2458 16.4667 45.5667 16.7876 45.5667 17.1834V31.5167Z" fill="#595959"/>
</svg>
