<svg width="19" height="18" viewBox="0 0 19 18" fill="none" xmlns="http://www.w3.org/2000/svg">
<path fill-rule="evenodd" clip-rule="evenodd" d="M5.01388 8.19162L12.8005 0.323353C13.2539 -0.107784 13.9472 -0.107784 14.3739 0.323353C14.8005 0.754491 14.8005 1.45509 14.3739 1.91317L7.36054 9L14.3739 16.0868C14.8005 16.518 14.8005 17.2455 14.3739 17.6766C13.9472 18.1078 13.2539 18.1078 12.8005 17.6766L5.01388 9.78144C4.58721 9.3503 4.58721 8.6497 5.01388 8.19162Z" fill="white"/>
<mask id="mask0_501_907" style="mask-type:alpha" maskUnits="userSpaceOnUse" x="4" y="0" width="11" height="18">
<path fill-rule="evenodd" clip-rule="evenodd" d="M5.01388 8.19162L12.8005 0.323353C13.2539 -0.107784 13.9472 -0.107784 14.3739 0.323353C14.8005 0.754491 14.8005 1.45509 14.3739 1.91317L7.36054 9L14.3739 16.0868C14.8005 16.518 14.8005 17.2455 14.3739 17.6766C13.9472 18.1078 13.2539 18.1078 12.8005 17.6766L5.01388 9.78144C4.58721 9.3503 4.58721 8.6497 5.01388 8.19162Z" fill="white"/>
</mask>
<g mask="url(#mask0_501_907)">
<rect x="-0.357254" y="-1" width="20" height="20" fill="#D14200"/>
</g>
</svg>
